<svg viewBox="0 0 32 32" fill="none" xmlns="http://www.w3.org/2000/svg">
<path d="M16 25.6003C12.6666 25.6003 9.71996 23.8937 7.99996 21.3337C8.03996 18.667 13.3333 17.2003 16 17.2003C18.6666 17.2003 23.96 18.667 24 21.3337C22.28 23.8937 19.3333 25.6003 16 25.6003ZM16 6.66699C17.0608 6.66699 18.0782 7.08842 18.8284 7.83857C19.5785 8.58871 20 9.60613 20 10.667C20 11.7279 19.5785 12.7453 18.8284 13.4954C18.0782 14.2456 17.0608 14.667 16 14.667C14.9391 14.667 13.9217 14.2456 13.1715 13.4954C12.4214 12.7453 12 11.7279 12 10.667C12 9.60613 12.4214 8.58871 13.1715 7.83857C13.9217 7.08842 14.9391 6.66699 16 6.66699ZM16 2.66699C14.249 2.66699 12.5152 3.01187 10.8975 3.68193C9.27984 4.35199 7.80998 5.33412 6.57187 6.57224C4.07138 9.07272 2.66663 12.4641 2.66663 16.0003C2.66663 19.5365 4.07138 22.9279 6.57187 25.4284C7.80998 26.6665 9.27984 27.6487 10.8975 28.3187C12.5152 28.9888 14.249 29.3337 16 29.3337C19.5362 29.3337 22.9276 27.9289 25.4281 25.4284C27.9285 22.9279 29.3333 19.5365 29.3333 16.0003C29.3333 8.62699 23.3333 2.66699 16 2.66699Z" fill="currentColor"/>
</svg>
