<svg xmlns="http://www.w3.org/2000/svg" viewBox="0 0 21 20" fill="none">
  <path d="M8.83366 14.1667L4.66699 10.0001L5.84199 8.81675L8.83366 11.8084L15.1587 5.48341L16.3337 6.66675M10.5003 1.66675C9.40598 1.66675 8.32234 1.8823 7.3113 2.30109C6.30025 2.71987 5.38159 3.3337 4.60777 4.10752C3.04497 5.67033 2.16699 7.78994 2.16699 10.0001C2.16699 12.2102 3.04497 14.3298 4.60777 15.8926C5.38159 16.6665 6.30025 17.2803 7.3113 17.6991C8.32234 18.1179 9.40598 18.3334 10.5003 18.3334C12.7105 18.3334 14.8301 17.4554 16.3929 15.8926C17.9557 14.3298 18.8337 12.2102 18.8337 10.0001C18.8337 8.90573 18.6181 7.8221 18.1993 6.81105C17.7805 5.80001 17.1667 4.88135 16.3929 4.10752C15.6191 3.3337 14.7004 2.71987 13.6894 2.30109C12.6783 1.8823 11.5947 1.66675 10.5003 1.66675Z" fill="currentColor"/>
</svg>
