<svg viewBox="0 0 20 23" fill="currentColor" xmlns="http://www.w3.org/2000/svg">
  <path d="M8 4C3.58 4 0 4.5 0 8V18C0 18.85 0.37 19.66 1 20.22V22C1 22.55 1.45 23 2 23H3C3.55 23 4 22.55 4 22V21H12V22C12 22.55 12.45 23 13 23H14C14.55 23 15 22.55 15 22V20.22C15.63 19.66 16 18.85 16 18V8C16 4.5 12.42 4 8 4ZM3.5 19C2.67 19 2 18.33 2 17.5C2 16.67 2.67 16 3.5 16C4.33 16 5 16.67 5 17.5C5 18.33 4.33 19 3.5 19ZM12.5 19C11.67 19 11 18.33 11 17.5C11 16.67 11.67 16 12.5 16C13.33 16 14 16.67 14 17.5C14 18.33 13.33 19 12.5 19ZM14 13H2V8H14V13ZM20 4V14C20 14.85 19.63 15.66 19 16.22V18C19 18.55 18.55 19 18 19H17.88C17.95 18.68 18 18.35 18 18V8C18 2 11 2 8 2C7.09 2 5.8 2 4.46 2.17C5.55 0.32 8.5 0 12 0C16.42 0 20 0.5 20 4Z" fill="currentColor"/>
</svg>
