<svg viewBox="0 0 33 40" fill="currentColor" xmlns="http://www.w3.org/2000/svg">
<path d="M32.5869 18.1818C32.5869 28.2727 25.7232 37.7091 16.5 40C7.27679 37.7091 0.413025 28.2727 0.413025 18.1818V7.27273L16.5 0L32.5869 7.27273V18.1818ZM16.5 36.3636C23.2029 34.5455 29.0121 26.4364 29.0121 18.5818V9.63636L16.5 3.96364L3.9879 9.63636V18.5818C3.9879 26.4364 9.79708 34.5455 16.5 36.3636Z" fill="#346487"/>
<path d="M23.9787 26.2453V23.2175C23.9787 23.0627 23.9488 22.9095 23.8907 22.7666C23.8326 22.6236 23.7475 22.4937 23.6402 22.3843C23.5329 22.2749 23.4055 22.1881 23.2652 22.1288C23.125 22.0696 22.9747 22.0391 22.823 22.0391H22.52V10.9803C22.5197 10.9316 22.5081 10.8838 22.4859 10.8406C22.4638 10.7975 22.4319 10.7604 22.3928 10.7324L21.6448 10.2405C21.6023 10.2149 21.554 10.2009 21.5046 10.1999C21.4552 10.1988 21.4063 10.2107 21.3627 10.2345C21.3192 10.2582 21.2823 10.293 21.2557 10.3354C21.2291 10.3779 21.2137 10.4266 21.211 10.4769V14.031L20.9903 13.4285C20.8463 13.0339 20.5875 12.6936 20.2487 12.453C19.9098 12.2124 19.5069 12.0831 19.094 12.0824H14.041C13.6256 12.083 13.2204 12.2135 12.88 12.4562C12.5396 12.699 12.2803 13.0423 12.1373 13.4399L11.9278 14.031V10.4769C11.9275 10.4242 11.9132 10.3726 11.8865 10.3275C11.8599 10.2823 11.8218 10.2453 11.7763 10.2204C11.7307 10.1954 11.6795 10.1834 11.6278 10.1856C11.5762 10.1878 11.5261 10.2041 11.4828 10.2329L10.7347 10.7248C10.6957 10.7528 10.6638 10.7899 10.6416 10.833C10.6195 10.8761 10.6078 10.924 10.6076 10.9727V22.0315H10.3046C10.1528 22.0315 10.0025 22.062 9.86233 22.1212C9.72211 22.1804 9.59471 22.2672 9.48739 22.3766C9.38007 22.4861 9.29494 22.616 9.23686 22.7589C9.17878 22.9019 9.14889 23.0551 9.14889 23.2099V26.2377H8.6664C8.59002 26.2377 8.51677 26.2686 8.46276 26.3237C8.40875 26.3788 8.37841 26.4534 8.37841 26.5313V28.1711C8.37841 28.2096 8.38586 28.2478 8.40033 28.2834C8.41481 28.3191 8.43602 28.3514 8.46276 28.3787C8.4895 28.406 8.52125 28.4276 8.55619 28.4424C8.59114 28.4571 8.62858 28.4647 8.6664 28.4647H9.91188V29.2274C9.91287 29.3835 9.97438 29.5329 10.083 29.6429C10.1916 29.7529 10.3385 29.8147 10.4916 29.8147H12.0251C12.1778 29.8147 12.3243 29.7528 12.4324 29.6426C12.5404 29.5325 12.6011 29.3831 12.6011 29.2274V28.4647H20.5377V29.2274C20.5377 29.3831 20.5984 29.5325 20.7064 29.6426C20.8144 29.7528 20.9609 29.8147 21.1137 29.8147H22.6472C22.8003 29.8147 22.9472 29.7529 23.0558 29.6429C23.1644 29.5329 23.2259 29.3835 23.2269 29.2274V28.4647H24.4724C24.5102 28.4647 24.5477 28.4571 24.5826 28.4424C24.6175 28.4276 24.6493 28.406 24.676 28.3787C24.7028 28.3514 24.724 28.3191 24.7385 28.2834C24.7529 28.2478 24.7604 28.2096 24.7604 28.1711V26.5389C24.7604 26.4611 24.73 26.3864 24.676 26.3313C24.622 26.2763 24.5488 26.2453 24.4724 26.2453H23.9787ZM12.3131 15.6746H20.8257V18.5804H12.3131V15.6746ZM12.1148 25.4216H11.1274C10.9833 25.4206 10.8453 25.3615 10.7437 25.2572C10.6421 25.1529 10.5851 25.0119 10.5851 24.8649C10.5851 24.7172 10.6426 24.5756 10.7451 24.4712C10.8475 24.3668 10.9864 24.3081 11.1312 24.3081H12.1186C12.2634 24.3081 12.4023 24.3668 12.5047 24.4712C12.6071 24.5756 12.6647 24.7172 12.6647 24.8649C12.6647 24.9383 12.6504 25.011 12.6227 25.0788C12.5951 25.1466 12.5545 25.2082 12.5034 25.2599C12.4523 25.3117 12.3916 25.3526 12.325 25.3803C12.2583 25.4081 12.1869 25.4221 12.1148 25.4216ZM18.533 25.5856H14.6058C14.5295 25.5861 14.4539 25.5712 14.3834 25.5416C14.3128 25.5121 14.2487 25.4686 14.1948 25.4136C14.1408 25.3586 14.0982 25.2933 14.0692 25.2213C14.0402 25.1494 14.0256 25.0723 14.0261 24.9945V21.2612C14.0261 21.1838 14.0411 21.1071 14.0703 21.0356C14.0995 20.9641 14.1422 20.8992 14.1961 20.8446C14.25 20.79 14.3139 20.7468 14.3842 20.7176C14.4545 20.6883 14.5298 20.6734 14.6058 20.6739H18.533C18.6089 20.6734 18.6842 20.6883 18.7546 20.7176C18.8249 20.7468 18.8888 20.79 18.9427 20.8446C18.9966 20.8992 19.0393 20.9641 19.0685 21.0356C19.0977 21.1071 19.1127 21.1838 19.1127 21.2612V24.9945C19.1132 25.0723 19.0986 25.1494 19.0696 25.2213C19.0406 25.2933 18.998 25.3586 18.944 25.4136C18.8901 25.4686 18.826 25.5121 18.7554 25.5416C18.6849 25.5712 18.6093 25.5861 18.533 25.5856ZM22.0113 25.4216H21.0239C20.8791 25.4216 20.7402 25.363 20.6378 25.2586C20.5354 25.1541 20.4779 25.0125 20.4779 24.8649C20.4779 24.7172 20.5354 24.5756 20.6378 24.4712C20.7402 24.3668 20.8791 24.3081 21.0239 24.3081H22.0113C22.153 24.309 22.2887 24.366 22.3899 24.4671C22.4911 24.5681 22.5498 24.7053 22.5537 24.8496C22.5557 24.9237 22.5431 24.9974 22.5168 25.0665C22.4905 25.1355 22.4509 25.1986 22.4004 25.2518C22.3499 25.3051 22.2895 25.3476 22.2227 25.3767C22.1559 25.4059 22.084 25.4211 22.0113 25.4216ZM18.4395 22.8285H14.6993C14.6617 22.829 14.6243 22.8219 14.5894 22.8076C14.5545 22.7932 14.5227 22.772 14.4959 22.745C14.4691 22.718 14.4478 22.6859 14.4333 22.6505C14.4188 22.6151 14.4113 22.5771 14.4113 22.5387C14.4113 22.5003 14.4188 22.4623 14.4333 22.4269C14.4478 22.3915 14.4691 22.3594 14.4959 22.3324C14.5227 22.3054 14.5545 22.2842 14.5894 22.2698C14.6243 22.2555 14.6617 22.2484 14.6993 22.2489H18.4395C18.5149 22.2489 18.5872 22.2794 18.6405 22.3338C18.6938 22.3881 18.7237 22.4618 18.7237 22.5387C18.7237 22.6156 18.6938 22.6893 18.6405 22.7436C18.5872 22.798 18.5149 22.8285 18.4395 22.8285ZM18.4395 21.6502H14.6993C14.6617 21.6507 14.6243 21.6436 14.5894 21.6292C14.5545 21.6149 14.5227 21.5936 14.4959 21.5667C14.4691 21.5397 14.4478 21.5076 14.4333 21.4722C14.4188 21.4367 14.4113 21.3987 14.4113 21.3604C14.4113 21.322 14.4188 21.284 14.4333 21.2486C14.4478 21.2132 14.4691 21.181 14.4959 21.1541C14.5227 21.1271 14.5545 21.1058 14.5894 21.0915C14.6243 21.0772 14.6617 21.07 14.6993 21.0705H18.4395C18.5149 21.0705 18.5872 21.1011 18.6405 21.1554C18.6938 21.2098 18.7237 21.2835 18.7237 21.3604C18.7237 21.4372 18.6938 21.5109 18.6405 21.5653C18.5872 21.6196 18.5149 21.6502 18.4395 21.6502ZM18.4395 25.1852H14.6993C14.6617 25.1857 14.6243 25.1786 14.5894 25.1642C14.5545 25.1499 14.5227 25.1286 14.4959 25.1017C14.4691 25.0747 14.4478 25.0426 14.4333 25.0072C14.4188 24.9718 14.4113 24.9338 14.4113 24.8954C14.4087 24.8554 14.4143 24.8154 14.4276 24.7777C14.441 24.74 14.4619 24.7056 14.4889 24.6766C14.516 24.6476 14.5487 24.6246 14.5849 24.6091C14.6211 24.5936 14.66 24.5859 14.6993 24.5865H18.4395C18.5149 24.5865 18.5872 24.617 18.6405 24.6714C18.6938 24.7257 18.7237 24.7994 18.7237 24.8763C18.7263 24.9159 18.7208 24.9557 18.7077 24.9931C18.6946 25.0305 18.674 25.0647 18.6474 25.0937C18.6207 25.1226 18.5885 25.1457 18.5528 25.1615C18.517 25.1772 18.4784 25.1853 18.4395 25.1852ZM18.4395 24.0069H14.6993C14.6617 24.0074 14.6243 24.0002 14.5894 23.9859C14.5545 23.9716 14.5227 23.9503 14.4959 23.9233C14.4691 23.8964 14.4478 23.8642 14.4333 23.8288C14.4188 23.7934 14.4113 23.7554 14.4113 23.717C14.4113 23.6787 14.4188 23.6407 14.4333 23.6052C14.4478 23.5698 14.4691 23.5377 14.4959 23.5107C14.5227 23.4838 14.5545 23.4625 14.5894 23.4482C14.6243 23.4338 14.6617 23.4267 14.6993 23.4272H18.4395C18.5149 23.4272 18.5872 23.4578 18.6405 23.5121C18.6938 23.5665 18.7237 23.6402 18.7237 23.717C18.7237 23.7939 18.6938 23.8676 18.6405 23.922C18.5872 23.9763 18.5149 24.0069 18.4395 24.0069Z" fill="CurrentColor"/>
</svg>
