<svg  viewBox="0 0 52 52" fill="currentColor" xmlns="http://www.w3.org/2000/svg">
<path fill-rule="evenodd" clip-rule="evenodd" d="M0 26C0 11.64 11.64 0 26 0C40.36 0 52 11.64 52 26C52 40.36 40.36 52 26 52C11.64 52 0 40.36 0 26ZM35.6267 21.1627C35.7867 20.9495 35.9024 20.7064 35.9672 20.4479C36.0319 20.1893 36.0443 19.9204 36.0036 19.6569C35.9629 19.3935 35.87 19.1409 35.7303 18.9139C35.5906 18.6869 35.4069 18.4901 35.19 18.3351C34.9732 18.1801 34.7275 18.07 34.4675 18.0113C34.2075 17.9526 33.9384 17.9464 33.6759 17.9932C33.4135 18.04 33.1631 18.1388 32.9394 18.2838C32.7157 18.4287 32.5233 18.6169 32.3733 18.8373L23.744 30.9173L19.4133 26.5867C19.0342 26.2334 18.5327 26.0411 18.0146 26.0502C17.4965 26.0593 17.0021 26.2692 16.6357 26.6357C16.2692 27.0021 16.0593 27.4965 16.0502 28.0146C16.0411 28.5327 16.2334 29.0342 16.5867 29.4133L22.5867 35.4133C22.792 35.6185 23.0395 35.7765 23.312 35.8764C23.5845 35.9763 23.8754 36.0157 24.1647 35.9918C24.454 35.968 24.7346 35.8815 24.987 35.7383C25.2395 35.5951 25.4577 35.3987 25.6267 35.1627L35.6267 21.1627Z" fill="currentColor"/>
</svg>
